<?xml version="1.0" encoding="utf-8"?>
<!-- Generator: Adobe Illustrator 21.0.2, SVG Export Plug-In . SVG Version: 6.00 Build 0)  -->
<svg version="1.1" id="Layer_1" xmlns="http://www.w3.org/2000/svg" xmlns:xlink="http://www.w3.org/1999/xlink" x="0px" y="0px"
	 viewBox="0 0 196.8 185.8" style="enable-background:new 0 0 196.8 185.8;" xml:space="preserve">
<style type="text/css">
	.st0{fill:#FAFAFA;}
</style>
<g>
	<path class="st0" d="M43.2,112.2c-3.1,0-5.6,2.5-5.6,5.6v9.7c0,3.1,2.5,5.6,5.6,5.6c3.1,0,5.6-2.5,5.6-5.6v-9.7
		C48.8,114.7,46.3,112.2,43.2,112.2L43.2,112.2z M43.2,112.2"/>
	<path class="st0" d="M65.6,112.2c-3.1,0-5.6,2.5-5.6,5.6v9.7c0,3.1,2.5,5.6,5.6,5.6c3.1,0,5.6-2.5,5.6-5.6v-9.7
		C71.2,114.7,68.7,112.2,65.6,112.2L65.6,112.2z M65.6,112.2"/>
	<path class="st0" d="M88,112.2c-3.1,0-5.6,2.5-5.6,5.6v9.7c0,3.1,2.5,5.6,5.6,5.6c3.1,0,5.6-2.5,5.6-5.6v-9.7
		C93.6,114.7,91.1,112.2,88,112.2L88,112.2z M88,112.2"/>
	<path class="st0" d="M108.2,112.2c-3.1,0-5.6,2.5-5.6,5.6v9.7c0,3.1,2.5,5.6,5.6,5.6c3.1,0,5.6-2.5,5.6-5.6v-9.7
		C113.8,114.7,111.3,112.2,108.2,112.2L108.2,112.2z M108.2,112.2"/>
	<path class="st0" d="M130.6,112.2c-3.1,0-5.6,2.5-5.6,5.6v9.7c0,3.1,2.5,5.6,5.6,5.6c3.1,0,5.6-2.5,5.6-5.6v-9.7
		C136.2,114.7,133.7,112.2,130.6,112.2L130.6,112.2z M130.6,112.2"/>
	<path class="st0" d="M153,112.2c-3.1,0-5.6,2.5-5.6,5.6v9.7c0,3.1,2.5,5.6,5.6,5.6c3.1,0,5.6-2.5,5.6-5.6v-9.7
		C158.6,114.7,156.1,112.2,153,112.2L153,112.2z M153,112.2"/>
	<path class="st0" d="M43.2,80.9c-3.1,0-5.6,2.5-5.6,5.6v9.7c0,3.1,2.5,5.6,5.6,5.6c3.1,0,5.6-2.5,5.6-5.6v-9.7
		C48.8,83.4,46.3,80.9,43.2,80.9L43.2,80.9z M43.2,80.9"/>
	<path class="st0" d="M65.6,80.9c-3.1,0-5.6,2.5-5.6,5.6v9.7c0,3.1,2.5,5.6,5.6,5.6c3.1,0,5.6-2.5,5.6-5.6v-9.7
		C71.2,83.4,68.7,80.9,65.6,80.9L65.6,80.9z M65.6,80.9"/>
	<path class="st0" d="M88,80.9c-3.1,0-5.6,2.5-5.6,5.6v9.7c0,3.1,2.5,5.6,5.6,5.6c3.1,0,5.6-2.5,5.6-5.6v-9.7
		C93.6,83.4,91.1,80.9,88,80.9L88,80.9z M88,80.9"/>
	<path class="st0" d="M108.2,80.9c-3.1,0-5.6,2.5-5.6,5.6v9.7c0,3.1,2.5,5.6,5.6,5.6c3.1,0,5.6-2.5,5.6-5.6v-9.7
		C113.8,83.4,111.3,80.9,108.2,80.9L108.2,80.9z M108.2,80.9"/>
	<path class="st0" d="M130.6,80.9c-3.1,0-5.6,2.5-5.6,5.6v9.7c0,3.1,2.5,5.6,5.6,5.6c3.1,0,5.6-2.5,5.6-5.6v-9.7
		C136.2,83.4,133.7,80.9,130.6,80.9L130.6,80.9z M130.6,80.9"/>
	<path class="st0" d="M153,80.9c-3.1,0-5.6,2.5-5.6,5.6v9.7c0,3.1,2.5,5.6,5.6,5.6c3.1,0,5.6-2.5,5.6-5.6v-9.7
		C158.6,83.4,156.1,80.9,153,80.9L153,80.9z M153,80.9"/>
	<path class="st0" d="M75.7,23.7c-3.1,0-5.6,2.5-5.6,5.6V39c0,3.1,2.5,5.6,5.6,5.6c3.1,0,5.6-2.5,5.6-5.6v-9.7
		C81.3,26.2,78.8,23.7,75.7,23.7L75.7,23.7z M75.7,23.7"/>
	<path class="st0" d="M98.1,23.7c-3.1,0-5.6,2.5-5.6,5.6V39c0,3.1,2.5,5.6,5.6,5.6c3.1,0,5.6-2.5,5.6-5.6v-9.7
		C103.7,26.2,101.2,23.7,98.1,23.7L98.1,23.7z M98.1,23.7"/>
	<g>
		<path class="st0" d="M120.5,23.7c-3.1,0-5.6,2.5-5.6,5.6V39c0,3.1,2.5,5.6,5.6,5.6c3.1,0,5.6-2.5,5.6-5.6v-9.7
			C126.1,26.2,123.6,23.7,120.5,23.7L120.5,23.7z M120.5,23.7"/>
		<path class="st0" d="M190.6,53.7h-41.5V5.5c0-3.1-2.5-5.6-5.6-5.6H52.7c-3.1,0-5.6,2.5-5.6,5.6v48.1H5.6c-3.1,0-5.6,2.5-5.6,5.6
			c0,3.1,2.5,5.6,5.6,5.6h5.3v114.3c0,3.1,2.5,5.6,5.6,5.6h163.3c3.1,0,5.6-2.5,5.6-5.6V64.9h5.3c3.1,0,5.6-2.5,5.6-5.6
			C196.2,56.2,193.7,53.7,190.6,53.7L190.6,53.7z M125.7,173.6h-22c0-0.2,0-0.4,0-0.6v-8.4h22V173.6z M92.6,173.6h-22v-9.1h22v8.4
			C92.5,173.2,92.5,173.4,92.6,173.6L92.6,173.6z M136.9,173.6V159c0-3.1-2.5-5.6-5.6-5.6H64.9c-3.1,0-5.6,2.5-5.6,5.6v14.6H22.1
			V64.9h152.1v108.7H136.9z M58.3,11.1H138v42.5H58.3V11.1z M58.3,11.1"/>
	</g>
</g>
</svg>
