<?xml version="1.0" encoding="utf-8"?>
<!-- Generator: Adobe Illustrator 21.0.2, SVG Export Plug-In . SVG Version: 6.00 Build 0)  -->
<svg version="1.1" id="Layer_1" xmlns="http://www.w3.org/2000/svg" xmlns:xlink="http://www.w3.org/1999/xlink" x="0px" y="0px"
	 viewBox="0 0 392 392" style="enable-background:new 0 0 392 392;" xml:space="preserve">
<style type="text/css">
	.st0{fill:#FAFAFA;}
</style>
<g>
	<path class="st0" d="M229.3,33.9c0,18.7-14.9,33.9-33.3,33.9s-33.3-15.2-33.3-33.9C162.7,15.2,177.6,0,196,0S229.3,15.2,229.3,33.9
		L229.3,33.9z M229.3,33.9"/>
	<path class="st0" d="M292.5,135h23.4L239,59.4c-2.8,4.6-6.2,9-10.6,12.7L292.5,135z M292.5,135"/>
	<path class="st0" d="M163.7,72.2c-4.1-3.8-7.8-8.1-10.6-12.7L76.2,135h23.4L163.7,72.2z M163.7,72.2"/>
	<path class="st0" d="M148.4,271.8c0,14.7-4.7,26.6-10.6,26.6s-10.6-11.9-10.6-26.6c0-14.7,4.7-26.6,10.6-26.6
		S148.4,257,148.4,271.8L148.4,271.8z M148.4,271.8"/>
	<path class="st0" d="M0,151.5V392h392V151.5H0z M102.6,305.1c0,3.7-3.3,6.6-7.3,6.6c-4,0-7.3-3-7.3-6.6v-26.7H68.4V305
		c0,3.7-3.3,6.6-7.3,6.6c-4,0-7.3-3-7.3-6.6v-66.6c0-3.7,3.3-6.6,7.3-6.6c4,0,7.3,3,7.3,6.6V265H88v-26.6c0-3.7,3.3-6.6,7.3-6.6
		c4,0,7.3,3,7.3,6.6V305.1z M137.8,311.8c-13.8,0-25-17.9-25-40c0-22.1,11.2-40,25-40s25,17.9,25,40
		C162.9,293.8,151.7,311.8,137.8,311.8L137.8,311.8z M214.5,245.1h-9.8v60c0,3.7-3.3,6.6-7.3,6.6s-7.3-3-7.3-6.6v-60h-9.8
		c-4,0-7.3-3-7.3-6.6c0-3.7,3.3-6.6,7.3-6.6h34.2c4,0,7.3,3,7.3,6.6C221.7,242.2,218.5,245.1,214.5,245.1L214.5,245.1z M271.3,265.1
		c4,0,7.3,3,7.3,6.6c0,3.7-3.3,6.6-7.3,6.6h-21.4v20h21.4c4,0,7.3,3,7.3,6.6c0,3.7-3.3,6.6-7.3,6.6h-28.6c-4,0-7.3-3-7.3-6.6v-66.6
		c0-3.7,3.3-6.6,7.3-6.6h28.6c4,0,7.3,3,7.3,6.6c0,3.7-3.3,6.6-7.3,6.6h-21.4v20L271.3,265.1L271.3,265.1z M330.8,311.8h-28.6
		c-4,0-7.3-3-7.3-6.6v-66.7c0-3.7,3.3-6.6,7.3-6.6c4,0,7.3,3,7.3,6.6v60h21.4c4,0,7.3,3,7.3,6.6
		C338.1,308.7,334.8,311.8,330.8,311.8L330.8,311.8z M330.8,311.8"/>
</g>
</svg>
