<?xml version="1.0" encoding="utf-8"?>
<!-- Generator: Adobe Illustrator 21.0.2, SVG Export Plug-In . SVG Version: 6.00 Build 0)  -->
<svg version="1.1" id="Layer_1" xmlns="http://www.w3.org/2000/svg" xmlns:xlink="http://www.w3.org/1999/xlink" x="0px" y="0px"
	 viewBox="0 0 291.8 306.1" style="enable-background:new 0 0 291.8 306.1;" xml:space="preserve">
<style type="text/css">
	.st0{fill-rule:evenodd;clip-rule:evenodd;fill:#FAFBFB;}
</style>
<path class="st0" d="M202.7,236.8c-7.1,0-10.8,7.2-12.5,16.1c-8.6-9-12.1-21.5-12.1-32.2c6.7,0,12.5,2.7,19.2,6.7
	c0-11.6-9.8-17.5-19.2-17.5c0-15.2,14.8-30,35.4-30c32.7,0,44.8,18.4,44.8,47.9c17.4-10.3,33.6-37.2,33.6-62.2
	c0-25.1-19.7-48.3-44.8-48.3c-36.7,0-51.9,13.9-68.5,36.3c-13,17.4-16.6,45.6-16.6,56.4h-7.1c0-25.5,11.6-51,23.2-73
	c5.4-10.3,11.6-22.8,11.6-34c0-13.4-6.3-28.2-15.2-44.3C166.1,43,154,19.7,145.9,0c-8.1,19.7-20.1,43-28.7,58.6
	C108.3,74.7,102,89.5,102,103c0,11.2,6.3,23.7,11.6,34c11.6,22,23.3,47.4,23.3,73h-7.1c0-10.8-3.6-39-16.6-56.4
	c-16.6-22.4-31.8-36.3-68.5-36.3C19.7,117.3,0,140.6,0,165.6c0,25.1,16.1,51.9,33.6,62.2c0-29.5,12.1-47.9,44.7-47.9
	c20.6,0,35.4,14.8,35.4,30c-9.4,0-19.2,5.8-19.2,17.5c6.7-4,12.5-6.7,19.2-6.7c0,10.7-3.6,23.3-12.1,32.2c-1.8-9-5.4-16.1-12.5-16.1
	c-8.5,0-16.6,9.4-16.6,19.7c0,10.8,6.3,19.2,17,19.2c17.9,0,36.7-22.8,38.5-55h8.9c0,11.2-0.9,20.2-3.5,26.9
	c-1.8,4.9-3.6,9.4-3.6,13.9c0,6.3,9,28.7,16.1,44.8c7.2-16.1,16.1-38.5,16.1-44.8c0-4.5-1.8-9-3.5-13.9c-2.7-6.7-3.6-15.7-3.6-26.9
	h8.9c1.8,32.2,20.6,55,38.5,55c10.7,0,17-8.5,17-19.2C219.3,246.2,211.3,236.8,202.7,236.8z"/>
</svg>
