<?xml version="1.0" encoding="utf-8"?>
<!-- Generator: Adobe Illustrator 21.0.2, SVG Export Plug-In . SVG Version: 6.00 Build 0)  -->
<svg version="1.1" id="Layer_2" xmlns="http://www.w3.org/2000/svg" xmlns:xlink="http://www.w3.org/1999/xlink" x="0px" y="0px"
	 viewBox="0 0 936 472.3" style="enable-background:new 0 0 936 472.3;" xml:space="preserve">
<style type="text/css">
	.st0{fill:#6D4890;}
	.st1{fill:#634883;}
	.st2{fill:#7773B5;}
	.st3{fill:#68CBDA;}
	.st4{fill:#616DB3;}
</style>
<g>
	<g>
		<path class="st0" d="M1.1,459.9v-44.5h7.6l21,31.7h0.1v-31.7h7v44.5H30L8.1,427.5H8v32.4H1.1z"/>
		<path class="st0" d="M53.8,444c0-12.1,8.6-16.6,15.2-16.6c7.2,0,14,4.3,14,17.2v1.7H61.2c0.3,5.8,3.8,8.3,8.5,8.3
			c4.1,0,6.5-1.4,9-3.7l3.9,3.8c-3.3,3.7-7.7,5.8-13.4,5.8C61.2,460.6,53.8,455.7,53.8,444z M76.2,440.8c-0.4-4.9-2.8-7.5-7.3-7.5
			c-3.6,0-6.9,2-7.6,7.5H76.2z"/>
		<path class="st0" d="M104.7,459.9L95.2,428h7.5l3.5,13.2c1,3.6,1.6,6.1,2.4,10.2h0.1c1-4.3,1.5-6.6,2.5-10.3l3.4-13.1h6l3.5,13.3
			c1,3.5,1.6,5.9,2.5,10h0.1c1-4.1,1.5-6.4,2.5-9.9l3.6-13.5h6.7l-9.5,31.9h-6.9l-5.8-22.2h-0.1l-5.8,22.2H104.7z"/>
		<path class="st0" d="M177.5,437.7c0-15,8.8-23.1,20.1-23.1c11.2,0,20,8.1,20,23.1c0,15-8.8,23.1-20,23.1
			C186.3,460.7,177.5,452.6,177.5,437.7z M210.1,437.7c0-10.5-5-16.2-12.4-16.2c-7.6,0-12.6,5.7-12.6,16.2s5,16.3,12.6,16.3
			C205.1,453.9,210.1,448.1,210.1,437.7z"/>
		<path class="st0" d="M233.7,459.9V428h7.4v5.2h0.1c2-3.2,5.4-5.8,11.5-5.8h0.5l-0.2,6.8c-0.4-0.1-1.6-0.1-2-0.1
			c-4.7,0-7.8,2.2-9.9,5.6v20.2H233.7z"/>
		<path class="st0" d="M268.4,459.9v-44.5h7.5v44.5H268.4z"/>
		<path class="st0" d="M292.2,444c0-12.1,8.6-16.6,15.2-16.6c7.2,0,14,4.3,14,17.2v1.7h-21.8c0.3,5.8,3.8,8.3,8.5,8.3
			c4.1,0,6.5-1.4,9-3.7l3.9,3.8c-3.3,3.7-7.7,5.8-13.4,5.8C299.6,460.6,292.2,455.7,292.2,444z M314.6,440.8
			c-0.4-4.9-2.8-7.5-7.3-7.5c-3.6,0-6.9,2-7.6,7.5H314.6z"/>
		<path class="st0" d="M335,452.2c0-6.9,5.9-11.5,20.8-13.2v-1c0-3.2-1.7-4.6-5.2-4.6c-4.4,0-8.1,2.2-10.8,4.3l-3.6-4.6
			c3.4-3.1,8.8-5.8,15.4-5.8c8.5,0,11.5,4.1,11.5,11.5v13.2c0,3.8,0.2,6.2,0.9,7.8h-7.5c-0.4-1.3-0.7-2.3-0.7-4.1
			c-3.2,3.3-7,4.6-11.8,4.6C338.8,460.4,335,457.5,335,452.2z M355.8,451v-7c-8.8,1.2-13.5,3.4-13.5,6.9c0,2.5,1.7,3.8,4.4,3.8
			C350.5,454.7,353.4,453.2,355.8,451z"/>
		<path class="st0" d="M380.6,459.9V428h7.4v5.1c2.4-2.8,6.1-5.7,11.4-5.7c5.8,0,9.4,3,9.4,9.3v23.2h-7.4v-21.1
			c0-3.5-1.4-5.3-4.8-5.3c-3.2,0-5.9,1.6-8.7,4.1v22.2H380.6z"/>
		<path class="st0" d="M424,455.5l4-4.5c2.4,2,5.9,3.8,10,3.8c4,0,6.4-1,6.4-3.7c0-2.6-3.2-3.4-7.1-4.3c-5.5-1.3-12-2.7-12-10.1
			c0-5.6,4.8-9.4,11.8-9.4c6.1,0,9.8,1.7,13.1,4.5l-3.5,4.8c-2.3-1.9-6.1-3.5-9-3.5c-4.1,0-5.4,1.4-5.4,3.2c0,2.6,3.2,3.4,7,4.2
			c5.5,1.2,12.1,2.6,12.1,10c0,6.7-6.1,9.9-13.3,9.9C432.2,460.6,426.9,458.4,424,455.5z"/>
		<path class="st0" d="M494.2,438.9c0-4.5,3.2-7.8,7.7-7.8c4.5,0,7.8,3.2,7.8,7.8c0,4.4-3.2,7.7-7.8,7.7
			C497.4,446.6,494.2,443.3,494.2,438.9z"/>
		<path class="st0" d="M555.2,459.9v-44.5h9.9l11.9,35.3h0.1l11.5-35.3h10.1v44.5h-7.3v-33.2h-0.1c-0.7,3.1-1.6,5.9-2.6,9.1
			l-8.7,24.1h-6.7l-8.6-24.1c-1.1-3.2-1.7-5.1-2.7-9.4H562v33.5H555.2z"/>
		<path class="st0" d="M615.5,452.2c0-6.9,5.9-11.5,20.8-13.2v-1c0-3.2-1.7-4.6-5.2-4.6c-4.4,0-8.1,2.2-10.8,4.3l-3.6-4.6
			c3.4-3.1,8.8-5.8,15.4-5.8c8.5,0,11.5,4.1,11.5,11.5v13.2c0,3.8,0.2,6.2,0.9,7.8H637c-0.4-1.3-0.7-2.3-0.7-4.1
			c-3.2,3.3-7,4.6-11.8,4.6C619.3,460.4,615.5,457.5,615.5,452.2z M636.3,451v-7c-8.8,1.2-13.5,3.4-13.5,6.9c0,2.5,1.7,3.8,4.4,3.8
			C631,454.7,633.9,453.2,636.3,451z"/>
		<path class="st0" d="M656.3,471.3l1.7-5.9c0.9,0.2,2.8,0.7,5.4,0.7c2.6,0,4-1,5-3.6l0.9-2.3L657.1,428h7.7l8.2,23.3h0.1l8.2-23.3
			h7.3L675,463.4c-2.1,5.6-4.9,8.9-11.2,8.9C660.1,472.3,657.9,471.7,656.3,471.3z"/>
		<path class="st0" d="M726.1,459.9v-6.6h8.2v-30.2c-2.2,1.1-5.5,2-8.1,2v-6.8c3.4-0.1,6.3-1,8.3-2.9h7.1v37.9h7.3v6.6H726.1z"/>
		<path class="st0" d="M764.5,457.1l3.6-5.5c2,1.4,4.7,2.7,8.2,2.7c6.7,0,11.2-6,11.5-15.4c-3,2.7-6.9,4.8-11.7,4.8
			c-8.5,0-14.2-4.9-14.2-14c0-9,7.3-15.1,16.1-15.1c10.2,0,17.2,7.5,17.2,22.3c0,15.7-8.8,23.9-19.2,23.9
			C771,460.7,766.9,459,764.5,457.1z M787.8,433.1c-0.6-8.6-4.5-12-10.1-12c-5.4,0-8.6,3.1-8.6,8.4c0,4.6,2.2,8,8.4,8
			C781.7,437.5,785.8,435.4,787.8,433.1z"/>
		<path class="st0" d="M811.2,444.3V438H843v6.4H811.2z"/>
		<path class="st0" d="M858.3,459.9v-1c0-6.4,2.2-12.6,13.9-20.1c6.8-4.4,9.5-6.5,9.5-11.1c0-4.1-2.8-6.4-7-6.4
			c-3.9,0-7.7,2.4-10.5,6.5l-5.6-3.8c3.6-5.5,8.8-9.4,16.4-9.4c8.7,0,13.9,5,13.9,12.6c0,5.4-2,9.5-10.5,14.9
			c-7.1,4.5-10.7,8-11.5,11.2h22.2v6.6H858.3z"/>
		<path class="st0" d="M902.9,452.9l5.2-4.2c3.1,4,6.9,5.4,11.2,5.4c5.5,0,9-2.1,9-6.9c0-5.6-4-7.7-12.4-7.7h-2v-6.1h2.2
			c8.7,0,11-2.6,11-6.5c0-3.5-2.1-5.6-7.6-5.6c-3.8,0-7.6,1.6-10.3,4.3l-4.4-4.7c3.7-3.8,9.3-6.3,15.4-6.3c9.6,0,14.3,4.6,14.3,11.2
			c0,5.3-3,9-8.2,10.4c6.5,1.3,9.4,5.3,9.4,11.3c0,8-6.4,13.2-16.3,13.2C912.4,460.7,906.7,458,902.9,452.9z"/>
	</g>
	<g>
		<path class="st1" d="M697.7,344.6v-1.3c0-8.5,3.8-16.5,19.4-26.4c8.8-5.7,12.4-9.2,12.4-15.5c0-6.5-4.1-10.6-11.1-10.6
			c-6.1,0-10.9,3.3-14.4,9.7l-5.4-3.3c4.3-7.8,11-12.6,20.2-12.6c10.9,0,17.6,6.7,17.6,16.3c0,7.7-3.5,13-14.8,20.2
			c-10.3,6.5-15.3,12.3-15.9,17.4h31.1v6.2H697.7z"/>
		<path class="st1" d="M765.4,315.1c0-18.4,8.1-30.6,22.2-30.6c14.2,0,22.1,12.2,22.1,30.6s-7.9,30.6-22.1,30.6
			C773.5,345.7,765.4,333.5,765.4,315.1z M802.7,315.1c0-16-5.9-24.4-15.1-24.4c-9.6,0-15.2,8.4-15.2,24.4s5.9,24.5,15.2,24.5
			C797.1,339.6,802.7,331.1,802.7,315.1z"/>
		<path class="st1" d="M838.9,344.6v-6.2H850V293c-2.9,1.5-7.5,2.7-10.9,2.7v-6.2c4.5-0.2,8.6-1.4,11.2-3.8h6.5v52.7h9.9v6.2H838.9z
			"/>
		<path class="st1" d="M893,330.2c0-8.1,5.9-12.8,15.1-16.7c-7.7-3.6-12.4-7.3-12.4-14.6c0-7.3,6.8-14.5,18.9-14.5
			c12.3,0,18.7,7.2,18.7,14.5c0,6.9-4.5,10.8-12.5,14.3c9.6,4.1,15.2,8.3,15.2,17c0,8.7-7.9,15.7-21.4,15.7
			C900.9,345.9,893,339,893,330.2z M929.1,329.8c0-6.2-5.3-9.6-15-13.7c-9.6,4.3-14.1,7.8-14.1,13.7c0,6.1,6,10.3,14.6,10.3
			C923.1,340.1,929.1,336.1,929.1,329.8z M926.5,299.3c0-4.5-3.7-9-11.9-9c-8,0-12,4.3-12,8.8c0,5.4,3.9,8,12.3,11.6
			C923.1,307,926.5,304.4,926.5,299.3z"/>
	</g>
	<g>
		<polygon class="st2" points="816.8,0 697.6,262.2 816.8,262.2 		"/>
		<polygon class="st0" points="816.8,0 816.8,262.2 936,262.2 		"/>
	</g>
	<g>
		<polygon class="st3" points="19.5,219.2 218.8,219.2 119.2,0 		"/>
		<polygon class="st4" points="0,262.2 238.4,262.2 218.8,219.2 19.5,219.2 		"/>
	</g>
	<g>
		<polygon class="st4" points="280.1,219.2 479.4,219.2 379.7,0 		"/>
		<polygon class="st3" points="260.5,262.2 498.9,262.2 479.4,219.2 280.1,219.2 		"/>
	</g>
	<g>
		<rect x="519.8" class="st2" width="100.3" height="219.2"/>
		<rect x="519.8" y="219.2" class="st3" width="100.3" height="43"/>
		<path class="st0" d="M620,0v219.2c60.5,0,109.6-49.1,109.6-109.6S680.6,0,620,0z"/>
	</g>
</g>
</svg>
