<svg xmlns="http://www.w3.org/2000/svg" viewBox="0 0 576 247.9"><defs><style>.a{fill:#7773b5;}.b{fill:#6d4890;}.c{fill:#68cbda;}.d{fill:#616db3;}.e{fill:#69cad9;}</style></defs><title>logo_small-teal</title><polygon class="a" points="502.7 0 429.3 161.3 502.7 161.3 502.7 0"/><polygon class="b" points="502.7 0 502.7 161.3 576 161.3 502.7 0"/><polygon class="c" points="12 134.9 134.7 134.9 73.3 0 12 134.9"/><polygon class="d" points="0 161.3 146.7 161.3 134.7 134.9 12 134.9 0 161.3"/><polygon class="d" points="172.3 134.9 295 134.9 233.7 0 172.3 134.9"/><polygon class="c" points="160.3 161.3 307 161.3 295 134.9 172.3 134.9 160.3 161.3"/><rect class="a" x="319.9" width="61.7" height="134.91"/><rect class="c" x="319.9" y="134.9" width="61.7" height="26.43"/><path class="b" d="M381.6,0V134.9A67.5,67.5,0,0,0,381.6,0Z"/><path class="e" d="M319.8,246.5v-1.3c0-9,3.1-17.6,19.4-28,9.5-6.1,13.2-9,13.2-15.4s-3.9-9-9.7-9-10.7,3.3-14.6,9.1l-7.8-5.4c5-7.7,12.2-13.1,22.8-13.1,12.1,0,19.4,7,19.4,17.6,0,7.5-2.8,13.2-14.6,20.8-9.9,6.3-14.9,11.1-16,15.6h31v9.2Z"/><path class="e" d="M392.1,215.6c0-19.3,9-32.1,24.6-32.1s24.4,12.8,24.4,32.1-8.9,32.1-24.4,32.1S392.1,234.9,392.1,215.6Zm38.6,0c0-15.5-5.3-22.8-14-22.8s-14.1,7.3-14.1,22.8,5.4,22.9,14.1,22.9S430.7,231,430.7,215.6Z"/><path class="e" d="M470.4,246.5v-9.2h11.4V195.2a26.8,26.8,0,0,1-11.2,2.8v-9.5c4.8-.2,8.8-1.4,11.5-4H492v52.7h10.1v9.2Z"/><path class="e" d="M528.5,231c0-8.2,6.2-13.3,14.8-17-7.4-3.6-12-7.4-12-15.1s7.3-15.7,20.9-15.7,20.8,7.9,20.8,15.7-4.4,11.5-12,14.9c9,3.9,14.8,8,14.8,17.2s-8.8,17-23.7,17S528.5,240.9,528.5,231Zm37-.6c0-5.6-4.6-8.8-14-12.6-8.2,3.8-12.6,7.2-12.6,12.6s5.2,9.1,13.3,9.1S565.5,236.1,565.5,230.4ZM563,199.6c0-3.9-3.1-7.9-10.7-7.9s-10.8,3.6-10.8,7.7,3.9,7.6,11.5,10.7C559.9,206.9,563,204.3,563,199.6Z"/></svg>